<mxfile host="app.diagrams.net" modified="2023-10-01T06:37:34.864Z" agent="Mozilla/5.0 (Macintosh; Intel Mac OS X 10_15_7) AppleWebKit/537.36 (KHTML, like Gecko) Chrome/114.0.0.0 Safari/537.36" etag="KvfFAVEhQ9EDZGXHiVJU" version="21.8.0" type="github">
  <diagram name="第 1 页" id="Tiiec9Cx-mdd2GHOtb4F">
    <mxGraphModel dx="1193" dy="770" grid="1" gridSize="10" guides="1" tooltips="1" connect="1" arrows="1" fold="1" page="1" pageScale="1" pageWidth="827" pageHeight="1169" math="0" shadow="0">
      <root>
        <mxCell id="0" />
        <mxCell id="1" parent="0" />
        <mxCell id="jCzD_8xTruMLZSJ5UP8o-84" value="" style="rounded=0;whiteSpace=wrap;html=1;" vertex="1" parent="1">
          <mxGeometry x="280" y="390" width="290" height="210" as="geometry" />
        </mxCell>
        <mxCell id="jCzD_8xTruMLZSJ5UP8o-81" value="" style="rounded=0;whiteSpace=wrap;html=1;" vertex="1" parent="1">
          <mxGeometry x="288" y="430" width="270" height="75" as="geometry" />
        </mxCell>
        <mxCell id="jCzD_8xTruMLZSJ5UP8o-11" value="" style="rounded=0;whiteSpace=wrap;html=1;" vertex="1" parent="1">
          <mxGeometry x="30" y="341" width="160" height="259" as="geometry" />
        </mxCell>
        <mxCell id="jCzD_8xTruMLZSJ5UP8o-2" value="&lt;font style=&quot;font-size: 10px;&quot;&gt;Text &amp;amp; Position Embedding&lt;/font&gt;" style="rounded=0;whiteSpace=wrap;html=1;fillColor=#ffe6cc;strokeColor=default;" vertex="1" parent="1">
          <mxGeometry x="30" y="609" width="160" height="30" as="geometry" />
        </mxCell>
        <mxCell id="jCzD_8xTruMLZSJ5UP8o-7" value="" style="endArrow=classic;html=1;rounded=0;entryX=0.5;entryY=1;entryDx=0;entryDy=0;exitX=0.427;exitY=-0.073;exitDx=0;exitDy=0;exitPerimeter=0;endSize=3;fillColor=#dae8fc;strokeColor=#6c8ebf;" edge="1" parent="1" target="jCzD_8xTruMLZSJ5UP8o-14">
          <mxGeometry width="50" height="50" relative="1" as="geometry">
            <mxPoint x="108.62" y="608.81" as="sourcePoint" />
            <mxPoint x="219" y="516" as="targetPoint" />
          </mxGeometry>
        </mxCell>
        <mxCell id="jCzD_8xTruMLZSJ5UP8o-14" value="&lt;span style=&quot;font-size: 10px;&quot;&gt;Layer Norm&lt;/span&gt;" style="rounded=0;whiteSpace=wrap;html=1;fillColor=#ffe6cc;strokeColor=default;" vertex="1" parent="1">
          <mxGeometry x="49" y="541" width="120" height="30" as="geometry" />
        </mxCell>
        <mxCell id="jCzD_8xTruMLZSJ5UP8o-39" value="" style="edgeStyle=orthogonalEdgeStyle;rounded=0;orthogonalLoop=1;jettySize=auto;html=1;" edge="1" parent="1" source="jCzD_8xTruMLZSJ5UP8o-15" target="jCzD_8xTruMLZSJ5UP8o-17">
          <mxGeometry relative="1" as="geometry" />
        </mxCell>
        <mxCell id="jCzD_8xTruMLZSJ5UP8o-15" value="&lt;span style=&quot;font-size: 10px;&quot;&gt;Masked &lt;br&gt;Multi-Head-Attention&lt;/span&gt;" style="rounded=0;whiteSpace=wrap;html=1;fillColor=#ffe6cc;strokeColor=default;" vertex="1" parent="1">
          <mxGeometry x="49" y="491" width="120" height="30" as="geometry" />
        </mxCell>
        <mxCell id="jCzD_8xTruMLZSJ5UP8o-16" value="&lt;span style=&quot;font-size: 10px;&quot;&gt;Layer Norm&lt;/span&gt;" style="rounded=0;whiteSpace=wrap;html=1;fillColor=#ffe6cc;strokeColor=default;" vertex="1" parent="1">
          <mxGeometry x="49" y="421" width="120" height="30" as="geometry" />
        </mxCell>
        <mxCell id="jCzD_8xTruMLZSJ5UP8o-17" value="&lt;span style=&quot;font-size: 10px;&quot;&gt;Feed Forward&lt;br&gt;&lt;/span&gt;" style="rounded=0;whiteSpace=wrap;html=1;fillColor=#ffe6cc;strokeColor=default;" vertex="1" parent="1">
          <mxGeometry x="49" y="371" width="120" height="30" as="geometry" />
        </mxCell>
        <mxCell id="jCzD_8xTruMLZSJ5UP8o-18" value="&lt;span style=&quot;font-size: 10px;&quot;&gt;Layer Norm&lt;br&gt;&lt;/span&gt;" style="rounded=0;whiteSpace=wrap;html=1;fillColor=#ffe6cc;strokeColor=default;" vertex="1" parent="1">
          <mxGeometry x="49" y="300" width="120" height="30" as="geometry" />
        </mxCell>
        <mxCell id="jCzD_8xTruMLZSJ5UP8o-19" value="Linear&lt;span style=&quot;color: rgba(0, 0, 0, 0); font-family: monospace; font-size: 0px; text-align: start;&quot;&gt;%3CmxGraphModel%3E%3Croot%3E%3CmxCell%20id%3D%220%22%2F%3E%3CmxCell%20id%3D%221%22%20parent%3D%220%22%2F%3E%3CmxCell%20id%3D%222%22%20value%3D%22%26lt%3Bspan%20style%3D%26quot%3Bfont-size%3A%2010px%3B%26quot%3B%26gt%3BMasked%20%26lt%3Bbr%26gt%3BMulti-Head-Attention%26lt%3B%2Fspan%26gt%3B%22%20style%3D%22rounded%3D0%3BwhiteSpace%3Dwrap%3Bhtml%3D1%3BfillColor%3D%23ffe6cc%3BstrokeColor%3Dnone%3B%22%20vertex%3D%221%22%20parent%3D%221%22%3E%3CmxGeometry%20x%3D%22279%22%20y%3D%22500%22%20width%3D%22120%22%20height%3D%2230%22%20as%3D%22geometry%22%2F%3E%3C%2FmxCell%3E%3C%2Froot%3E%3C%2FmxGraphModel%3E&lt;/span&gt;&lt;span style=&quot;font-size: 10px;&quot;&gt;&lt;br&gt;&lt;/span&gt;" style="rounded=0;whiteSpace=wrap;html=1;fillColor=#ffe6cc;strokeColor=default;" vertex="1" parent="1">
          <mxGeometry x="49" y="260" width="120" height="30" as="geometry" />
        </mxCell>
        <mxCell id="jCzD_8xTruMLZSJ5UP8o-20" value="&lt;span style=&quot;font-size: 10px;&quot;&gt;Softmax&lt;br&gt;&lt;/span&gt;" style="rounded=0;whiteSpace=wrap;html=1;fillColor=#ffe6cc;strokeColor=default;" vertex="1" parent="1">
          <mxGeometry x="49" y="220" width="120" height="30" as="geometry" />
        </mxCell>
        <mxCell id="jCzD_8xTruMLZSJ5UP8o-21" value="&lt;span style=&quot;font-size: 10px;&quot;&gt;Next Token&lt;br&gt;&lt;/span&gt;" style="rounded=0;whiteSpace=wrap;html=1;fillColor=#ffe6cc;strokeColor=default;" vertex="1" parent="1">
          <mxGeometry x="49" y="180" width="120" height="30" as="geometry" />
        </mxCell>
        <mxCell id="jCzD_8xTruMLZSJ5UP8o-22" value="" style="endArrow=open;startArrow=oval;endFill=0;startFill=1;endSize=3;startSize=3;html=1;rounded=0;edgeStyle=orthogonalEdgeStyle;entryX=1;entryY=0.5;entryDx=0;entryDy=0;fillColor=#dae8fc;strokeColor=#6c8ebf;" edge="1" parent="1" target="jCzD_8xTruMLZSJ5UP8o-25">
          <mxGeometry width="160" relative="1" as="geometry">
            <mxPoint x="109" y="591" as="sourcePoint" />
            <mxPoint x="190" y="471" as="targetPoint" />
            <Array as="points">
              <mxPoint x="180" y="591" />
              <mxPoint x="180" y="473" />
            </Array>
          </mxGeometry>
        </mxCell>
        <mxCell id="jCzD_8xTruMLZSJ5UP8o-23" value="" style="endArrow=classic;html=1;rounded=0;entryX=0.5;entryY=1;entryDx=0;entryDy=0;endSize=3;fillColor=#dae8fc;strokeColor=#6c8ebf;" edge="1" parent="1">
          <mxGeometry width="50" height="50" relative="1" as="geometry">
            <mxPoint x="110" y="541" as="sourcePoint" />
            <mxPoint x="110" y="521" as="targetPoint" />
          </mxGeometry>
        </mxCell>
        <mxCell id="jCzD_8xTruMLZSJ5UP8o-24" value="" style="endArrow=classic;html=1;rounded=0;entryX=0.5;entryY=1;entryDx=0;entryDy=0;exitX=0.5;exitY=0;exitDx=0;exitDy=0;endSize=3;fillColor=#dae8fc;strokeColor=#6c8ebf;" edge="1" parent="1" source="jCzD_8xTruMLZSJ5UP8o-25" target="jCzD_8xTruMLZSJ5UP8o-16">
          <mxGeometry width="50" height="50" relative="1" as="geometry">
            <mxPoint x="110" y="491" as="sourcePoint" />
            <mxPoint x="109.60000000000002" y="451" as="targetPoint" />
          </mxGeometry>
        </mxCell>
        <mxCell id="jCzD_8xTruMLZSJ5UP8o-27" value="" style="endArrow=classic;html=1;rounded=0;entryX=0.5;entryY=1;entryDx=0;entryDy=0;exitX=0.5;exitY=0;exitDx=0;exitDy=0;endSize=3;fillColor=#dae8fc;strokeColor=#6c8ebf;" edge="1" parent="1" source="jCzD_8xTruMLZSJ5UP8o-15" target="jCzD_8xTruMLZSJ5UP8o-25">
          <mxGeometry width="50" height="50" relative="1" as="geometry">
            <mxPoint x="109" y="491" as="sourcePoint" />
            <mxPoint x="109" y="451" as="targetPoint" />
          </mxGeometry>
        </mxCell>
        <mxCell id="jCzD_8xTruMLZSJ5UP8o-25" value="&lt;font color=&quot;#33001a&quot; style=&quot;font-size: 14px;&quot; face=&quot;Courier New&quot;&gt;+&lt;/font&gt;" style="ellipse;whiteSpace=wrap;html=1;aspect=fixed;fillColor=none;strokeColor=#33001A;" vertex="1" parent="1">
          <mxGeometry x="104" y="468" width="10" height="10" as="geometry" />
        </mxCell>
        <mxCell id="jCzD_8xTruMLZSJ5UP8o-28" value="" style="endArrow=classic;html=1;rounded=0;entryX=0.501;entryY=0.973;entryDx=0;entryDy=0;entryPerimeter=0;endSize=3;fillColor=#dae8fc;strokeColor=#6c8ebf;" edge="1" parent="1" target="jCzD_8xTruMLZSJ5UP8o-17">
          <mxGeometry width="50" height="50" relative="1" as="geometry">
            <mxPoint x="109" y="421" as="sourcePoint" />
            <mxPoint x="109" y="411" as="targetPoint" />
          </mxGeometry>
        </mxCell>
        <mxCell id="jCzD_8xTruMLZSJ5UP8o-30" value="" style="endArrow=classic;html=1;rounded=0;entryX=0.5;entryY=1;entryDx=0;entryDy=0;endSize=3;" edge="1" parent="1" source="jCzD_8xTruMLZSJ5UP8o-31" target="jCzD_8xTruMLZSJ5UP8o-18">
          <mxGeometry width="50" height="50" relative="1" as="geometry">
            <mxPoint x="108.73000000000002" y="372" as="sourcePoint" />
            <mxPoint x="108.73000000000002" y="351" as="targetPoint" />
          </mxGeometry>
        </mxCell>
        <mxCell id="jCzD_8xTruMLZSJ5UP8o-32" value="" style="endArrow=classic;html=1;rounded=0;entryX=0.5;entryY=1;entryDx=0;entryDy=0;endSize=3;" edge="1" parent="1" target="jCzD_8xTruMLZSJ5UP8o-31">
          <mxGeometry width="50" height="50" relative="1" as="geometry">
            <mxPoint x="109" y="371" as="sourcePoint" />
            <mxPoint x="109" y="341" as="targetPoint" />
          </mxGeometry>
        </mxCell>
        <mxCell id="jCzD_8xTruMLZSJ5UP8o-31" value="&lt;font style=&quot;font-size: 14px;&quot; face=&quot;Courier New&quot;&gt;+&lt;/font&gt;" style="ellipse;whiteSpace=wrap;html=1;aspect=fixed;fillColor=none;strokeColor=default;" vertex="1" parent="1">
          <mxGeometry x="104" y="351" width="10" height="10" as="geometry" />
        </mxCell>
        <mxCell id="jCzD_8xTruMLZSJ5UP8o-33" value="" style="endArrow=classic;html=1;rounded=0;entryX=0.5;entryY=1;entryDx=0;entryDy=0;endSize=3;fillColor=#dae8fc;strokeColor=#6c8ebf;" edge="1" parent="1" target="jCzD_8xTruMLZSJ5UP8o-19">
          <mxGeometry width="50" height="50" relative="1" as="geometry">
            <mxPoint x="109" y="300" as="sourcePoint" />
            <mxPoint x="108.73000000000002" y="290" as="targetPoint" />
          </mxGeometry>
        </mxCell>
        <mxCell id="jCzD_8xTruMLZSJ5UP8o-34" value="" style="endArrow=classic;html=1;rounded=0;endSize=3;fillColor=#dae8fc;strokeColor=#6c8ebf;" edge="1" parent="1">
          <mxGeometry width="50" height="50" relative="1" as="geometry">
            <mxPoint x="109" y="260" as="sourcePoint" />
            <mxPoint x="109" y="250" as="targetPoint" />
          </mxGeometry>
        </mxCell>
        <mxCell id="jCzD_8xTruMLZSJ5UP8o-35" value="" style="endArrow=classic;html=1;rounded=0;entryX=0.501;entryY=0.973;entryDx=0;entryDy=0;entryPerimeter=0;endSize=3;fillColor=#dae8fc;strokeColor=#6c8ebf;" edge="1" parent="1">
          <mxGeometry width="50" height="50" relative="1" as="geometry">
            <mxPoint x="109" y="220" as="sourcePoint" />
            <mxPoint x="108.73000000000002" y="210" as="targetPoint" />
          </mxGeometry>
        </mxCell>
        <mxCell id="jCzD_8xTruMLZSJ5UP8o-36" value="" style="endArrow=open;startArrow=oval;endFill=0;startFill=1;endSize=3;startSize=3;html=1;rounded=0;edgeStyle=orthogonalEdgeStyle;entryX=1;entryY=0.5;entryDx=0;entryDy=0;fillColor=#dae8fc;strokeColor=#6c8ebf;" edge="1" parent="1" target="jCzD_8xTruMLZSJ5UP8o-31">
          <mxGeometry width="160" relative="1" as="geometry">
            <mxPoint x="109" y="461" as="sourcePoint" />
            <mxPoint x="114" y="343" as="targetPoint" />
            <Array as="points">
              <mxPoint x="180" y="461" />
              <mxPoint x="180" y="356" />
            </Array>
          </mxGeometry>
        </mxCell>
        <mxCell id="jCzD_8xTruMLZSJ5UP8o-38" value="xN" style="text;strokeColor=none;align=center;fillColor=none;html=1;verticalAlign=middle;whiteSpace=wrap;rounded=0;" vertex="1" parent="1">
          <mxGeometry x="178" y="461" width="60" height="30" as="geometry" />
        </mxCell>
        <mxCell id="jCzD_8xTruMLZSJ5UP8o-40" value="GPT Architecture" style="text;strokeColor=none;align=center;fillColor=none;html=1;verticalAlign=middle;whiteSpace=wrap;rounded=0;" vertex="1" parent="1">
          <mxGeometry x="54" y="639" width="110" height="30" as="geometry" />
        </mxCell>
        <mxCell id="jCzD_8xTruMLZSJ5UP8o-42" value="&lt;font style=&quot;font-size: 10px;&quot;&gt;Text Embedding&lt;/font&gt;" style="rounded=0;whiteSpace=wrap;html=1;fillColor=#ffe6cc;strokeColor=default;" vertex="1" parent="1">
          <mxGeometry x="343" y="609" width="160" height="30" as="geometry" />
        </mxCell>
        <mxCell id="jCzD_8xTruMLZSJ5UP8o-43" value="" style="endArrow=classic;html=1;rounded=0;entryX=0.5;entryY=1;entryDx=0;entryDy=0;endSize=3;fillColor=#dae8fc;strokeColor=#6c8ebf;" edge="1" parent="1" target="jCzD_8xTruMLZSJ5UP8o-44">
          <mxGeometry width="50" height="50" relative="1" as="geometry">
            <mxPoint x="422" y="609" as="sourcePoint" />
            <mxPoint x="532" y="516" as="targetPoint" />
          </mxGeometry>
        </mxCell>
        <mxCell id="jCzD_8xTruMLZSJ5UP8o-44" value="&lt;span style=&quot;font-size: 10px;&quot;&gt;Layer Norm&lt;/span&gt;" style="rounded=0;whiteSpace=wrap;html=1;fillColor=#ffe6cc;strokeColor=default;" vertex="1" parent="1">
          <mxGeometry x="362" y="541" width="120" height="30" as="geometry" />
        </mxCell>
        <mxCell id="jCzD_8xTruMLZSJ5UP8o-49" value="&lt;span style=&quot;font-size: 10px;&quot;&gt;Layer Norm&lt;br&gt;&lt;/span&gt;" style="rounded=0;whiteSpace=wrap;html=1;fillColor=#ffe6cc;strokeColor=default;" vertex="1" parent="1">
          <mxGeometry x="363" y="342" width="120" height="30" as="geometry" />
        </mxCell>
        <mxCell id="jCzD_8xTruMLZSJ5UP8o-50" value="Linear&lt;span style=&quot;color: rgba(0, 0, 0, 0); font-family: monospace; font-size: 0px; text-align: start;&quot;&gt;%3CmxGraphModel%3E%3Croot%3E%3CmxCell%20id%3D%220%22%2F%3E%3CmxCell%20id%3D%221%22%20parent%3D%220%22%2F%3E%3CmxCell%20id%3D%222%22%20value%3D%22%26lt%3Bspan%20style%3D%26quot%3Bfont-size%3A%2010px%3B%26quot%3B%26gt%3BMasked%20%26lt%3Bbr%26gt%3BMulti-Head-Attention%26lt%3B%2Fspan%26gt%3B%22%20style%3D%22rounded%3D0%3BwhiteSpace%3Dwrap%3Bhtml%3D1%3BfillColor%3D%23ffe6cc%3BstrokeColor%3Dnone%3B%22%20vertex%3D%221%22%20parent%3D%221%22%3E%3CmxGeometry%20x%3D%22279%22%20y%3D%22500%22%20width%3D%22120%22%20height%3D%2230%22%20as%3D%22geometry%22%2F%3E%3C%2FmxCell%3E%3C%2Froot%3E%3C%2FmxGraphModel%3E&lt;/span&gt;&lt;span style=&quot;font-size: 10px;&quot;&gt;&lt;br&gt;&lt;/span&gt;" style="rounded=0;whiteSpace=wrap;html=1;fillColor=#ffe6cc;strokeColor=default;" vertex="1" parent="1">
          <mxGeometry x="363" y="300" width="120" height="30" as="geometry" />
        </mxCell>
        <mxCell id="jCzD_8xTruMLZSJ5UP8o-51" value="&lt;span style=&quot;font-size: 10px;&quot;&gt;Softmax&lt;br&gt;&lt;/span&gt;" style="rounded=0;whiteSpace=wrap;html=1;fillColor=#ffe6cc;strokeColor=default;" vertex="1" parent="1">
          <mxGeometry x="363" y="260" width="120" height="30" as="geometry" />
        </mxCell>
        <mxCell id="jCzD_8xTruMLZSJ5UP8o-52" value="&lt;span style=&quot;font-size: 10px;&quot;&gt;Next Token&lt;br&gt;&lt;/span&gt;" style="rounded=0;whiteSpace=wrap;html=1;fillColor=#ffe6cc;strokeColor=default;" vertex="1" parent="1">
          <mxGeometry x="363" y="219" width="120" height="30" as="geometry" />
        </mxCell>
        <mxCell id="jCzD_8xTruMLZSJ5UP8o-59" value="" style="endArrow=classic;html=1;rounded=0;entryX=0.5;entryY=1;entryDx=0;entryDy=0;endSize=3;fillColor=#dae8fc;strokeColor=#6c8ebf;" edge="1" parent="1" source="jCzD_8xTruMLZSJ5UP8o-61" target="jCzD_8xTruMLZSJ5UP8o-49">
          <mxGeometry width="50" height="50" relative="1" as="geometry">
            <mxPoint x="422.73" y="412" as="sourcePoint" />
            <mxPoint x="422.73" y="391" as="targetPoint" />
          </mxGeometry>
        </mxCell>
        <mxCell id="jCzD_8xTruMLZSJ5UP8o-60" value="" style="endArrow=classic;html=1;rounded=0;entryX=0.5;entryY=1;entryDx=0;entryDy=0;endSize=3;exitX=0.5;exitY=0;exitDx=0;exitDy=0;fillColor=#dae8fc;strokeColor=#6c8ebf;" edge="1" parent="1" target="jCzD_8xTruMLZSJ5UP8o-61" source="jCzD_8xTruMLZSJ5UP8o-81">
          <mxGeometry width="50" height="50" relative="1" as="geometry">
            <mxPoint x="423" y="411" as="sourcePoint" />
            <mxPoint x="423" y="381" as="targetPoint" />
          </mxGeometry>
        </mxCell>
        <mxCell id="jCzD_8xTruMLZSJ5UP8o-61" value="&lt;font style=&quot;font-size: 14px;&quot; face=&quot;Courier New&quot;&gt;+&lt;/font&gt;" style="ellipse;whiteSpace=wrap;html=1;aspect=fixed;fillColor=none;strokeColor=default;" vertex="1" parent="1">
          <mxGeometry x="418" y="396" width="10" height="10" as="geometry" />
        </mxCell>
        <mxCell id="jCzD_8xTruMLZSJ5UP8o-62" value="" style="endArrow=classic;html=1;rounded=0;entryX=0.5;entryY=1;entryDx=0;entryDy=0;endSize=3;fillColor=#dae8fc;strokeColor=#6c8ebf;exitX=0.5;exitY=0;exitDx=0;exitDy=0;" edge="1" parent="1" target="jCzD_8xTruMLZSJ5UP8o-50" source="jCzD_8xTruMLZSJ5UP8o-49">
          <mxGeometry width="50" height="50" relative="1" as="geometry">
            <mxPoint x="423" y="340" as="sourcePoint" />
            <mxPoint x="422.73" y="330" as="targetPoint" />
          </mxGeometry>
        </mxCell>
        <mxCell id="jCzD_8xTruMLZSJ5UP8o-63" value="" style="endArrow=classic;html=1;rounded=0;endSize=3;fillColor=#dae8fc;strokeColor=#6c8ebf;" edge="1" parent="1">
          <mxGeometry width="50" height="50" relative="1" as="geometry">
            <mxPoint x="423" y="300" as="sourcePoint" />
            <mxPoint x="423" y="290" as="targetPoint" />
          </mxGeometry>
        </mxCell>
        <mxCell id="jCzD_8xTruMLZSJ5UP8o-64" value="" style="endArrow=classic;html=1;rounded=0;endSize=3;fillColor=#dae8fc;strokeColor=#6c8ebf;exitX=0.5;exitY=0;exitDx=0;exitDy=0;entryX=0.498;entryY=0.958;entryDx=0;entryDy=0;entryPerimeter=0;" edge="1" parent="1" source="jCzD_8xTruMLZSJ5UP8o-51" target="jCzD_8xTruMLZSJ5UP8o-52">
          <mxGeometry width="50" height="50" relative="1" as="geometry">
            <mxPoint x="423" y="260" as="sourcePoint" />
            <mxPoint x="423" y="250" as="targetPoint" />
          </mxGeometry>
        </mxCell>
        <mxCell id="jCzD_8xTruMLZSJ5UP8o-66" value="xN" style="text;strokeColor=none;align=center;fillColor=none;html=1;verticalAlign=middle;whiteSpace=wrap;rounded=0;" vertex="1" parent="1">
          <mxGeometry x="558" y="468" width="60" height="30" as="geometry" />
        </mxCell>
        <mxCell id="jCzD_8xTruMLZSJ5UP8o-67" value="CodeFuse Architecture" style="text;strokeColor=none;align=center;fillColor=none;html=1;verticalAlign=middle;whiteSpace=wrap;rounded=0;" vertex="1" parent="1">
          <mxGeometry x="349" y="639" width="146" height="30" as="geometry" />
        </mxCell>
        <mxCell id="jCzD_8xTruMLZSJ5UP8o-70" value="&lt;span style=&quot;font-size: 10px;&quot;&gt;Masked &lt;br&gt;Multi-Head-Attention&lt;br&gt;&amp;amp; Rotary Position Embedding&lt;br&gt;&lt;/span&gt;" style="rounded=0;whiteSpace=wrap;html=1;fillColor=#ffe6cc;strokeColor=default;" vertex="1" parent="1">
          <mxGeometry x="293" y="437" width="120" height="61" as="geometry" />
        </mxCell>
        <mxCell id="jCzD_8xTruMLZSJ5UP8o-72" value="&lt;span style=&quot;font-size: 10px;&quot;&gt;Feed Forward&lt;br&gt;&lt;/span&gt;" style="rounded=0;whiteSpace=wrap;html=1;fillColor=#ffe6cc;strokeColor=default;" vertex="1" parent="1">
          <mxGeometry x="433" y="437" width="120" height="61" as="geometry" />
        </mxCell>
        <mxCell id="jCzD_8xTruMLZSJ5UP8o-73" value="" style="endArrow=classic;html=1;rounded=0;endSize=3;fillColor=#dae8fc;strokeColor=#6c8ebf;" edge="1" parent="1">
          <mxGeometry width="50" height="50" relative="1" as="geometry">
            <mxPoint x="422" y="540" as="sourcePoint" />
            <mxPoint x="422" y="526" as="targetPoint" />
          </mxGeometry>
        </mxCell>
        <mxCell id="jCzD_8xTruMLZSJ5UP8o-75" value="" style="endArrow=classic;startArrow=classic;html=1;rounded=0;endSize=3;startSize=3;edgeStyle=orthogonalEdgeStyle;entryX=0.5;entryY=1;entryDx=0;entryDy=0;exitX=0.222;exitY=1.001;exitDx=0;exitDy=0;exitPerimeter=0;fillColor=#dae8fc;strokeColor=#6c8ebf;" edge="1" parent="1" source="jCzD_8xTruMLZSJ5UP8o-81">
          <mxGeometry width="50" height="50" relative="1" as="geometry">
            <mxPoint x="347.72" y="508.7080000000001" as="sourcePoint" />
            <mxPoint x="493" y="506" as="targetPoint" />
            <Array as="points">
              <mxPoint x="348" y="526" />
              <mxPoint x="493" y="526" />
            </Array>
          </mxGeometry>
        </mxCell>
        <mxCell id="jCzD_8xTruMLZSJ5UP8o-76" value="&lt;font color=&quot;#33001a&quot; style=&quot;font-size: 14px;&quot; face=&quot;Courier New&quot;&gt;+&lt;/font&gt;" style="ellipse;whiteSpace=wrap;html=1;aspect=fixed;fillColor=none;strokeColor=#33001A;" vertex="1" parent="1">
          <mxGeometry x="418" y="460.5" width="10" height="10" as="geometry" />
        </mxCell>
        <mxCell id="jCzD_8xTruMLZSJ5UP8o-83" value="" style="endArrow=open;startArrow=oval;endFill=0;startFill=1;endSize=3;startSize=3;html=1;rounded=0;edgeStyle=orthogonalEdgeStyle;fillColor=#dae8fc;strokeColor=#6c8ebf;entryX=1;entryY=0.5;entryDx=0;entryDy=0;" edge="1" parent="1">
          <mxGeometry width="160" relative="1" as="geometry">
            <mxPoint x="422" y="589" as="sourcePoint" />
            <mxPoint x="427.0000000000001" y="401" as="targetPoint" />
            <Array as="points">
              <mxPoint x="562" y="589" />
              <mxPoint x="562" y="401" />
            </Array>
          </mxGeometry>
        </mxCell>
      </root>
    </mxGraphModel>
  </diagram>
</mxfile>
